<?xml version="1.0" encoding="utf-8"?>
<svg xmlns="http://www.w3.org/2000/svg" style="margin: auto; background: none; display: block; shape-rendering: auto; animation-play-state: running; animation-delay: 0s;" width="280" height="250" preserveAspectRatio="xMidYMid">
<style type="text/css" style="animation-play-state: running; animation-delay: 0s;">
  text {
    text-anchor: middle; font-size: 80px; opacity: 0;
  }
</style>
<g style="transform-origin: 140px 125px; transform: scale(1); animation-play-state: running; animation-delay: 0s;">
<g transform="translate(140,125)" style="animation-play-state: running; animation-delay: 0s;">
  <g transform="translate(0,0)" style="animation-play-state: running; animation-delay: 0s;"><g class="path" style="transform: matrix(1, 0, 0, 1, 0, 14.925); opacity: 0.05; transform-origin: -78.56px -8.468px; animation: 1s linear 0s 1 normal forwards running float-btt-in-d38d864d-968d-48c4-9a74-38543e072822;"><path d="M3.20 0L3.20-5.92L32.96-49.44L4.56-49.44L4.56-56L41.68-56L41.68-50.24L11.92-6.72L42.80-6.72L42.80 0L3.20 0" fill="#edb6b9" stroke="none" stroke-width="none" transform="translate(-101.56002807617188,19.531997680664062)" style="fill: rgb(237, 182, 185); animation-play-state: running; animation-delay: 0s;"></path></g><g class="path" style="transform: matrix(1, 0, 0, 1, 0, 14.925); opacity: 0.05; transform-origin: -31.64px -1.268px; animation: 1s linear 0.11s 1 normal forwards running float-btt-in-d38d864d-968d-48c4-9a74-38543e072822;"><path d="M83.28-20.80L83.28-20.80L83.28-20.80Q83.28-23.92 82.28-26.72L82.28-26.72L82.28-26.72Q81.28-29.52 79.48-31.60L79.48-31.60L79.48-31.60Q77.68-33.68 75.24-34.92L75.24-34.92L75.24-34.92Q72.80-36.16 69.92-36.16L69.92-36.16L69.92-36.16Q63.60-36.16 60.08-32L60.08-32L60.08-32Q56.56-27.84 56.56-20.96L56.56-20.96L56.56-20.96Q56.56-17.84 57.56-15L57.56-15L57.56-15Q58.56-12.16 60.36-10.04L60.36-10.04L60.36-10.04Q62.16-7.92 64.60-6.68L64.60-6.68L64.60-6.68Q67.04-5.44 69.92-5.44L69.92-5.44L69.92-5.44Q73.04-5.44 75.52-6.56L75.52-6.56L75.52-6.56Q78-7.68 79.72-9.72L79.72-9.72L79.72-9.72Q81.44-11.76 82.36-14.56L82.36-14.56L82.36-14.56Q83.28-17.36 83.28-20.80zM49.20-20.80L49.20-20.80L49.20-20.80Q49.20-25.84 50.80-29.88L50.80-29.88L50.80-29.88Q52.40-33.92 55.16-36.72L55.16-36.72L55.16-36.72Q57.92-39.52 61.72-41.04L61.72-41.04L61.72-41.04Q65.52-42.56 69.92-42.56L69.92-42.56L69.92-42.56Q74.24-42.56 78.04-41.04L78.04-41.04L78.04-41.04Q81.84-39.52 84.64-36.72L84.64-36.72L84.64-36.72Q87.44-33.92 89.04-29.92L89.04-29.92L89.04-29.92Q90.64-25.92 90.64-20.96L90.64-20.96L90.64-20.96Q90.64-16 89.08-11.96L89.08-11.96L89.08-11.96Q87.52-7.92 84.72-5.04L84.72-5.04L84.72-5.04Q81.92-2.16 78.12-0.60L78.12-0.60L78.12-0.60Q74.32 0.96 69.92 0.96L69.92 0.96L69.92 0.96Q65.44 0.96 61.64-0.64L61.64-0.64L61.64-0.64Q57.84-2.24 55.08-5.12L55.08-5.12L55.08-5.12Q52.32-8 50.76-12L50.76-12L50.76-12Q49.20-16 49.20-20.80" fill="#edb6b9" stroke="none" stroke-width="none" transform="translate(-101.56002807617188,19.531997680664062)" style="fill: rgb(237, 182, 185); animation-play-state: running; animation-delay: 0s;"></path></g><g class="path" style="transform: matrix(1, 0, 0, 1, 0, 14.925); opacity: 0.05; transform-origin: 16.16px -10.068px; animation: 1s linear 0.22s 1 normal forwards running float-btt-in-d38d864d-968d-48c4-9a74-38543e072822;"><path d="M107.44-59.20L107.44-34.96L107.44-34.96Q109.68-38.24 113.08-40.40L113.08-40.40L113.08-40.40Q116.48-42.56 121.20-42.56L121.20-42.56L121.20-42.56Q128.24-42.56 131.72-38.32L131.72-38.32L131.72-38.32Q135.20-34.08 135.20-27.12L135.20-27.12L135.20 0L128 0L128-26.32L128-26.32Q128-30.88 125.96-33.56L125.96-33.56L125.96-33.56Q123.92-36.24 120.08-36.24L120.08-36.24L120.08-36.24Q118.24-36.24 116.44-35.56L116.44-35.56L116.44-35.56Q114.64-34.88 113.04-33.68L113.04-33.68L113.04-33.68Q111.44-32.48 110-30.88L110-30.88L110-30.88Q108.56-29.28 107.44-27.52L107.44-27.52L107.44 0L100.24 0L100.24-59.20L107.44-59.20" fill="#edb6b9" stroke="none" stroke-width="none" transform="translate(-101.56002807617188,19.531997680664062)" style="fill: rgb(237, 182, 185); animation-play-state: running; animation-delay: 0s;"></path></g><g class="path" style="transform: matrix(1, 0, 0, 1, 0, 14.925); opacity: 0.05; transform-origin: 49.64px -1.268px; animation: 1s linear 0.33s 1 normal forwards running float-btt-in-d38d864d-968d-48c4-9a74-38543e072822;"><path d="M154.80-41.60L154.80 0L147.60 0L147.60-41.60L154.80-41.60" fill="#edb6b9" stroke="none" stroke-width="none" transform="translate(-101.56002807617188,19.531997680664062)" style="fill: rgb(237, 182, 185); animation-play-state: running; animation-delay: 0s;"></path></g><g class="path" style="transform: matrix(1, 0, 0, 1, 0, 14.925); opacity: 0.05; transform-origin: 49.64px -34.228px; animation: 1s linear 0.44s 1 normal forwards running float-btt-in-d38d864d-968d-48c4-9a74-38543e072822;"><path d="M151.20-48.72L151.20-48.72L151.20-48.72Q149.12-48.72 147.64-50.20L147.64-50.20L147.64-50.20Q146.16-51.68 146.16-53.76L146.16-53.76L146.16-53.76Q146.16-56.08 147.52-57.44L147.52-57.44L147.52-57.44Q148.88-58.80 151.20-58.80L151.20-58.80L151.20-58.80Q153.28-58.80 154.76-57.32L154.76-57.32L154.76-57.32Q156.24-55.84 156.24-53.76L156.24-53.76L156.24-53.76Q156.24-51.44 154.88-50.08L154.88-50.08L154.88-50.08Q153.52-48.72 151.20-48.72" fill="#edb6b9" stroke="none" stroke-width="none" transform="translate(-101.56002807617188,19.531997680664062)" style="fill: rgb(237, 182, 185); animation-play-state: running; animation-delay: 0s;"></path></g><g class="path" style="transform: matrix(1, 0, 0, 1, 0, 14.925); opacity: 0.05; transform-origin: 85.2px -0.788002px; animation: 1s linear 0.55s 1 normal forwards running float-btt-in-d38d864d-968d-48c4-9a74-38543e072822;"><path d="M206.32-5.20L204.80 0.40L204.80 0.40Q200.96 0.40 198.72-1.12L198.72-1.12L198.72-1.12Q196.48-2.64 195.60-5.52L195.60-5.52L195.60-5.52Q192.80-2.64 189.16-0.84L189.16-0.84L189.16-0.84Q185.52 0.96 181.20 0.96L181.20 0.96L181.20 0.96Q178.48 0.96 175.96 0.12L175.96 0.12L175.96 0.12Q173.44-0.72 171.48-2.56L171.48-2.56L171.48-2.56Q169.52-4.40 168.36-7.36L168.36-7.36L168.36-7.36Q167.20-10.32 167.20-14.56L167.20-14.56L167.20-41.60L174.40-41.60L174.40-15.52L174.40-15.52Q174.40-10.64 176.44-8.04L176.44-8.04L176.44-8.04Q178.48-5.44 182.56-5.44L182.56-5.44L182.56-5.44Q185.92-5.44 188.96-6.76L188.96-6.76L188.96-6.76Q192-8.08 194.40-10.32L194.40-10.32L194.40-41.60L201.60-41.60L201.60-10.80L201.60-10.80Q201.60-9.04 202-7.96L202-7.96L202-7.96Q202.40-6.88 203.04-6.28L203.04-6.28L203.04-6.28Q203.68-5.68 204.56-5.44L204.56-5.44L204.56-5.44Q205.44-5.20 206.32-5.20L206.32-5.20" fill="#edb6b9" stroke="none" stroke-width="none" transform="translate(-101.56002807617188,19.531997680664062)" style="fill: rgb(237, 182, 185); animation-play-state: running; animation-delay: 0s;"></path></g></g>
</g>
</g>
<style id="float-btt-in-d38d864d-968d-48c4-9a74-38543e072822" data-anikit="">@keyframes float-btt-in-d38d864d-968d-48c4-9a74-38543e072822
{
  0% {
    animation-timing-function: cubic-bezier(0.2242,0.7499,0.3142,0.8148);
    transform: translate(0px,14.925px) rotate(0deg) scale(1,1) skewX(0deg) skewY(0deg);
    opacity: 0.05;
  }
  100% {
    transform: translate(0px,0px) rotate(0deg) scale(1,1) skewX(0deg) skewY(0deg);
    opacity: 1;
  }
}</style></svg>
